<svg width="85" height="44" viewBox="0 0 85 44" fill="none" xmlns="http://www.w3.org/2000/svg">
<path d="M17.5671 13.4297C12.9579 13.4297 9.13139 17.2289 9.13139 22C9.13139 26.7711 12.8709 30.5703 17.5671 30.5703C20.35 30.5703 22.785 29.245 24.3504 27.1245L21.4805 25.004C20.6109 26.241 19.2194 26.9478 17.5671 26.9478C15.4799 26.9478 13.6536 25.5341 12.9579 23.5904H25.9158V22C25.9158 17.2289 22.1762 13.4297 17.5671 13.4297ZM12.9579 20.498C13.5666 18.4659 15.3929 17.0522 17.5671 17.0522C19.7412 17.0522 21.5675 18.4659 22.1762 20.498H12.9579ZM0 30.4819H3.82649V0H0V30.4819ZM36.7865 16.6988C35.2211 14.6667 32.873 13.4297 30.1771 13.4297V17.0522C32.873 17.0522 35.0472 19.261 35.0472 22C35.0472 24.739 32.873 26.9478 30.1771 26.9478V30.5703C32.873 30.5703 35.2211 29.245 36.7865 27.3012C38.3518 29.3333 40.6999 30.5703 43.3959 30.5703V26.9478C40.6999 26.9478 38.5258 24.739 38.5258 22C38.5258 19.261 40.6999 17.0522 43.3959 17.0522V13.4297C40.6999 13.4297 38.3518 14.6667 36.7865 16.6988ZM64.4415 22C64.4415 17.3173 60.702 13.4297 56.0059 13.4297C51.3967 13.4297 47.5702 17.2289 47.5702 22C47.5702 26.7711 51.3097 30.5703 56.0059 30.5703C57.8322 30.5703 59.4845 29.9518 60.8759 28.9799V35.4297C60.8759 38.1687 58.7018 40.3775 56.0059 40.3775C53.3099 40.3775 51.1358 38.1687 51.1358 35.4297H47.5702C47.5702 40.1125 51.3097 44 56.0059 44C60.6151 44 64.4415 40.2008 64.4415 35.4297V22ZM60.8759 22C60.8759 24.739 58.7018 26.9478 56.0059 26.9478C53.3099 26.9478 51.1358 24.739 51.1358 22C51.1358 19.261 53.3099 17.0522 56.0059 17.0522C58.7018 17.0522 60.8759 19.261 60.8759 22Z" fill="#290088"/>
<path d="M85 22C85 26.8114 81.1608 30.7119 76.425 30.7119C71.6891 30.7119 67.8499 26.8114 67.8499 22C67.8499 17.1886 71.6891 13.2881 76.425 13.2881C81.1608 13.2881 85 17.1886 85 22Z" fill="url(#paint0_linear_13_33)"/>
<defs>
<linearGradient id="paint0_linear_13_33" x1="25.8028" y1="10.5762" x2="36.7271" y2="38.6688" gradientUnits="userSpaceOnUse">
<stop stop-color="#3115CA"/>
<stop offset="1" stop-color="#58FBFA"/>
</linearGradient>
</defs>
</svg>
