<svg width="22" height="29" viewBox="0 0 22 29" fill="none" xmlns="http://www.w3.org/2000/svg">
<path fill-rule="evenodd" clip-rule="evenodd" d="M8.0441 0.802266C8.81449 0.288673 9.82691 0 10.9 0C11.9731 0 12.9855 0.288673 13.7559 0.802266C14.2759 1.14893 14.7262 1.63145 14.9607 2.22222H18.6822C20.4037 2.22222 21.8 3.6185 21.8 5.34V25.3378C21.8 27.0659 20.3993 28.4667 18.6711 28.4667H3.13556C1.40294 28.4667 0 27.0637 0 25.3311V5.34667C0 3.62072 1.3985 2.22222 3.12444 2.22222H6.83925C7.07381 1.63145 7.52411 1.14893 8.0441 0.802266ZM9.04256 2.29996C8.59981 2.59512 8.46667 2.90372 8.46667 3.12222V4.02222H6.24444V6.66667H15.5556V4.02222H13.3333V3.12222C13.3333 2.90372 13.2002 2.59512 12.7574 2.29996C12.3212 2.0091 11.6669 1.8 10.9 1.8C10.1331 1.8 9.47884 2.0091 9.04256 2.29996ZM17.3556 4.02222V8.46667H4.44444V4.02222H3.12444C2.39261 4.02222 1.8 4.61483 1.8 5.34667V25.3311C1.8 26.0696 2.39706 26.6667 3.13556 26.6667H18.6711C19.4052 26.6667 20 26.0718 20 25.3378V5.34C20 4.61261 19.4096 4.02222 18.6822 4.02222H17.3556ZM17.9919 11.7008L14.1867 15.5061L11.6796 12.9991L12.9524 11.7263L14.1866 12.9605L16.7191 10.428L17.9919 11.7008ZM8.67778 15.1333H4.23333V13.3333H8.67778V15.1333ZM17.9919 18.7766L14.1867 22.582L11.6796 20.0749L12.9524 18.8021L14.1866 20.0364L16.7191 17.5038L17.9919 18.7766ZM8.67778 21.8H4.23333V20H8.67778V21.8Z" fill="#4000D4"/>
</svg>
