<svg width="22" height="34" viewBox="0 0 22 34" fill="none" xmlns="http://www.w3.org/2000/svg">
<path d="M7.80952 32.5576C7.49493 32.5575 7.19872 32.4093 7.00993 32.1577L1.91 25.3595C1.64337 25.0036 1.4936 24.5738 1.48129 24.1292C1.46899 23.6846 1.59475 23.2472 1.84127 22.877C2.00361 22.634 2.21377 22.4265 2.45892 22.2674C2.70407 22.1082 2.97908 22.0007 3.26717 21.9514C3.55526 21.902 3.85038 21.9119 4.13453 21.9804C4.41868 22.0488 4.68589 22.1745 4.91987 22.3497L5.70329 22.9386C6.36239 23.4341 7.3042 22.9639 7.3042 22.1393V10.4715C7.3042 9.91353 7.52585 9.37841 7.92039 8.98387C8.31493 8.58933 8.85005 8.36768 9.40802 8.36768C9.96598 8.36768 10.5011 8.58933 10.8956 8.98387C11.2902 9.37841 11.5118 9.91353 11.5118 10.4715V18.0847C11.5118 18.5534 11.8373 18.9591 12.2948 19.0609L17.3661 20.1883C18.3646 20.4102 19.2481 20.9882 19.8514 21.8143C20.4547 22.6403 20.7364 23.6578 20.6438 24.6765L20.0098 31.6518C19.963 32.167 19.5309 32.5615 19.0136 32.5613L7.80952 32.5576Z" stroke="#4000D4" stroke-width="1.8" stroke-miterlimit="10" stroke-linecap="round"/>
<path d="M9.41602 4.15573V1" stroke="#4000D4" stroke-width="1.8" stroke-miterlimit="10" stroke-linecap="round"/>
<path d="M13.623 5.20758L15.7269 3.10376" stroke="#4000D4" stroke-width="1.8" stroke-miterlimit="10" stroke-linecap="round"/>
<path d="M5.20734 5.20758L3.10352 3.10376" stroke="#4000D4" stroke-width="1.8" stroke-miterlimit="10" stroke-linecap="round"/>
<path d="M14.6738 8.36328H17.8296" stroke="#4000D4" stroke-width="1.8" stroke-miterlimit="10" stroke-linecap="round"/>
<path d="M4.15573 8.36328H1" stroke="#4000D4" stroke-width="1.8" stroke-miterlimit="10" stroke-linecap="round"/>
</svg>
