<svg width="32" height="22" viewBox="0 0 32 22" fill="none" xmlns="http://www.w3.org/2000/svg">
<path fill-rule="evenodd" clip-rule="evenodd" d="M21.8038 1.8C19.1535 1.8 17.005 3.94845 17.005 6.59871C17.005 9.24896 19.1535 11.3974 21.8038 11.3974C24.454 11.3974 26.6025 9.24896 26.6025 6.59871C26.6025 3.94845 24.454 1.8 21.8038 1.8ZM15.205 6.59871C15.205 2.95434 18.1594 0 21.8038 0C25.4481 0 28.4025 2.95434 28.4025 6.59871C28.4025 10.2431 25.4481 13.1974 21.8038 13.1974C18.1594 13.1974 15.205 10.2431 15.205 6.59871ZM6.73577 6.9807C4.94387 6.9807 3.49125 8.43331 3.49125 10.2252C3.49125 12.0171 4.94387 13.4697 6.73577 13.4697C8.52766 13.4697 9.98028 12.0171 9.98028 10.2252C9.98028 8.43331 8.52766 6.9807 6.73577 6.9807ZM1.69125 10.2252C1.69125 7.4392 3.94976 5.1807 6.73577 5.1807C9.52177 5.1807 11.7803 7.4392 11.7803 10.2252C11.7803 13.0112 9.52177 15.2697 6.73577 15.2697C3.94976 15.2697 1.69125 13.0112 1.69125 10.2252ZM21.8021 13.4697H21.8038H21.8138C23.9229 13.4737 25.9789 14.1316 27.6986 15.3527C29.4182 16.5739 30.717 18.2982 31.4158 20.2882C31.5805 20.7572 31.3338 21.2709 30.8649 21.4356C30.3959 21.6003 29.8822 21.3536 29.7175 20.8847C29.142 19.2459 28.0725 17.826 26.6564 16.8204C25.2404 15.8148 23.5475 15.2731 21.8108 15.2697C21.8107 15.2697 21.811 15.2697 21.8108 15.2697H21.8054C21.8053 15.2697 21.8056 15.2697 21.8054 15.2697C20.0689 15.273 18.3757 15.8147 16.9599 16.8202C15.5441 17.8258 14.4749 19.2458 13.8998 20.8845C13.7352 21.3535 13.2215 21.6003 12.7525 21.4357C12.2835 21.2711 12.0367 20.7574 12.2013 20.2884C12.8998 18.2984 14.1982 16.5739 15.9177 15.3527C17.6372 14.1315 19.6931 13.4736 21.8021 13.4697ZM6.73561 15.542C8.25562 15.5395 9.73547 16.0298 10.9533 16.9394C11.3515 17.2369 11.4332 17.8008 11.1357 18.199C10.8383 18.5973 10.2743 18.679 9.87607 18.3815C8.97017 17.7048 7.86931 17.3401 6.73859 17.342C5.64275 17.3441 4.57451 17.6859 3.681 18.3203C2.78743 18.9548 2.11257 19.8508 1.74939 20.8847C1.58466 21.3537 1.07095 21.6003 0.601985 21.4356C0.133017 21.2709 -0.11362 20.7572 0.0511038 20.2882C0.537665 18.903 1.44177 17.7027 2.63888 16.8527C3.83599 16.0027 5.26742 15.5447 6.73561 15.542Z" fill="#4000D4"/>
</svg>
